<svg xmlns="http://www.w3.org/2000/svg" viewBox="0 0 400 400" id="Enter-Password-1--Streamline-Milano.svg" height="400" width="400"><desc>Enter Password 1 Streamline Illustration: https://streamlinehq.com</desc><g fill="#004aad"><path d="M270.44 241.62c-6 -3.44 -14 -2.54 -14 -2.74 -22.16 -0.2 -28.64 28.72 -7.04 36.22a199.14 199.14 0 0 0 2 20.44 3.08 3.08 0 0 0 2.44 2.72c3.06 0.96 11.7 0 12.64 -1.66 2 -3.64 -0.7 -18 -1.54 -22.18 8.96 -3.28 14.64 -10.7 12.64 -20.58 -0.82 -4.04 -1.8 -9.12 -7.14 -12.22zm91 -101.96c-1.52 -3.06 -14.62 -8.26 -18.44 -7.86a1.62 1.62 0 0 0 -1.3 0.72c-2.56 4 -13.58 32.24 -13.16 34.64 0.24 1.42 5.44 4 6.68 4.58s4.34 2 5.52 1.34c3.26 -2.04 22.28 -30.22 20.7 -33.42zm-1.5 1.24c-1.72 5.28 -16.9 28.36 -20 30.58a28.58 28.58 0 0 1 -9.58 -4.72c0.6 -3.52 10.5 -32.56 12.34 -34.12 1.3 -1.14 18.16 5.36 17.3 8.26zm-8.78 61.32c3.88 0.38 36.36 -10.48 37.08 -14s-7.22 -16.5 -10.18 -17.54a1.56 1.56 0 0 0 -0.8 0c-3.7 1.12 -30.84 17.24 -32 19.56 -0.68 1.26 1.84 6.42 2.48 7.64s2.06 4.12 3.42 4.34zm-4.38 -11.28c2.6 -2.38 28.52 -19.46 30.92 -19.58 1.8 0 11.12 15.2 8.6 16.94 -4.68 3.18 -31 12.26 -34.84 12.12a28.2 28.2 0 0 1 -4.68 -9.48zm42.54 36.12c-3.22 -2 -33.8 -11 -36.26 -10.38 -1.38 0.34 -3.56 5.6 -4 6.92s-1.76 4.44 -0.92 5.56c2.32 3.1 32.28 19.58 35.38 17.76s7.08 -14.76 6.5 -18.62a1.76 1.76 0 0 0 -0.7 -1.24zm-7.32 18.46c-5.4 -1.24 -30 -14.34 -32.52 -17.36a28.74 28.74 0 0 1 4 -9.76c3.88 0.32 34 8 35.48 9.4s-3.98 18.38 -6.96 17.72zM123.18 51.8a1 1 0 1 0 2 -0.18c0 -0.42 -0.12 -0.8 -0.22 -1.32a1.02 1.02 0 0 0 -1.16 -0.82 1 1 0 0 0 -0.8 1.16c0.08 0.62 0.14 0.86 0.18 1.16zm9.32 5.98c0.8 -0.64 0.38 -3.52 0.18 -4.52a14 14 0 0 0 -1.2 -3.62 0.32 0.32 0 0 0 -0.64 0.16 33.1 33.1 0 0 0 0.3 3.8s0.36 3 0.34 3.18c0 0.52 -2 0.38 -2.16 0.92s2.28 0.84 3.18 0.08zm2.46 -6.66a1 1 0 0 0 2 0 12.76 12.76 0 0 0 0 -1.38 1.04 1.04 0 0 0 -1.08 -0.92 1 1 0 0 0 -0.92 1.08 9.2 9.2 0 0 1 0 1.22z" stroke-width="1"></path><path d="M330.72 208.52a57.8 57.8 0 0 0 -12.1 -1.74c-15 -6 -70.78 -0.28 -87 2 -0.62 -6.48 -1.52 -16 -1.52 -16.92 -0.18 -19.04 7.8 -29.48 18.24 -33.6 16.98 1 34.14 13.9 32.8 31.32 0 0.12 0 0.38 0.44 0.48 1.86 0.48 22.86 0.96 27.78 -1.76 7.12 -0.26 14.26 -1.1 14.56 -3.14 0.88 -5.78 -2.44 -18.64 -4.58 -23.48 -12.2 -27.68 -46.62 -39.48 -75.7 -32.16 -18 0.96 -35.44 8.52 -46.7 23.38s-9.78 48 -7.32 66.62a4.66 4.66 0 0 0 -2 2.66c-4.52 23.66 13.62 92.94 23.34 106.92 6.32 9.08 96 10.88 117.72 -6 4.86 -3.8 11.1 -94.2 7.08 -110 -0.66 -2.32 -1.38 -3.46 -5.04 -4.58zM198.38 154c26.36 -34.88 88.8 -28.54 106.28 10.24 2.12 4.7 5.48 17.34 4.7 22.82 -0.32 2.42 -23.72 3 -27.48 2.34 2.42 -35.1 -67.12 -52.52 -67 4.52 0 5.04 1.72 17.12 1.74 17.32 -11.3 2.1 -20.48 4.58 -25.32 7.24C188.92 200 187.72 168 198.38 154zM314 319.36c-17.7 13.78 -96.6 16.16 -101.8 8.78 -9.54 -13.52 -28 -81.74 -23.5 -105.06 2.36 -12.4 123.6 -23.06 131.16 -13.54 5.46 6.84 -1.98 106.8 -5.86 109.82zM95.12 171.48s0.02 0.04 0 0z" stroke-width="1"></path><path d="M198 110c-2.6 -5.88 -16.64 -25.12 -22.8 -25.44 -1.72 0 -7.7 3.02 -16 8 -1.76 -3.04 -5.12 -3.26 -8.76 -2.18a17.04 17.04 0 0 0 -5.8 3.36 76 76 0 0 0 -15.58 -10.4l0.72 -7.6c0.2 -0.12 0 -0.12 1.5 -0.14a5.6 5.6 0 0 0 2.18 -0.96 20.6 20.6 0 0 0 2.6 -1.5 29.6 29.6 0 0 0 2.54 -1.6c1.44 -1.28 1 -2.86 1.24 -4.12 0.56 -2.76 2 -6.88 0.28 -8a73.5 73.5 0 0 0 1.58 -11.42c1.76 0 3.24 -2.76 2.66 -3.82a2.7 2.7 0 0 0 0.5 -2.76c1 -0.7 1.02 -2.66 0.8 -3.76 0 -0.26 0 -0.1 0.16 -0.52 0.8 -1.38 0.76 -4 -1.02 -4.22a4 4 0 0 0 -0.98 0c0.28 -2 -0.5 -2.52 -1.84 -3.34a2.82 2.82 0 0 0 -2 -0.54c-0.38 -0.5 -0.46 -1.6 -2 -1.62s-1.1 0.46 -2.32 -1.14a3.4 3.4 0 0 0 -3.22 -1.78 3.58 3.58 0 0 0 -1.14 0.42 2 2 0 0 0 -2.86 -1.68c-0.46 0.18 -1.12 0.62 -1.4 0.72 0 -1.12 -1.48 -2.32 -3.38 -1.8 -0.84 0.24 -1.58 0.8 -2.52 1.14 -0.34 0.12 -1.02 -1.08 -2 -0.8s-2.42 1.64 -2.9 1.66a1.76 1.76 0 0 0 -1.04 -0.32 10 10 0 0 0 -3.16 1.8 3.52 3.52 0 0 0 -2.82 0c-1.36 0.68 -0.96 1.76 -1.06 2.92 -0.48 0.3 -2 0.3 -2.56 0.66 -1.32 0.78 -1.02 1.54 -1.5 2.44s-1.02 0.98 -1.2 2.18a2.28 2.28 0 0 0 0.78 2.16 2.64 2.64 0 0 0 -2 1.1 3.2 3.2 0 0 0 -0.2 2.7 3.14 3.14 0 0 0 -1.68 3.28 1.18 1.18 0 0 0 0.76 0.84 3.88 3.88 0 0 0 0.7 4.52 1.8 1.8 0 0 0 0.78 0.2 10 10 0 0 0 0 1.34c0.1 1.3 1.56 1.28 1.78 1.38 0.12 0.42 -0.56 1.8 -0.4 2.66a2.1 2.1 0 0 0 0.48 0.88c-0.86 1.72 1.26 2 1.46 2.1 5.22 3.88 4 2.8 4.82 3.5 -0.2 1.54 -3.62 12.3 -4.2 15.5a70.2 70.2 0 0 0 -22.12 0.12c-13.74 1.3 -46.92 21.5 -47.84 26a6 6 0 0 0 0.6 2.92C30 109.8 21.74 116.7 22 124.54a104.44 104.44 0 0 0 3.58 22.98C10 159.62 4.68 183.68 16.22 202.7a46.8 46.8 0 0 0 12.8 18.92c9.36 8.62 24.48 10.64 37.26 8.82 -1.8 15.76 -3.86 29.64 -5.9 33.2 -13.76 24 -45.36 75.7 -45.02 76.76 0.44 1.46 3 3.48 5.6 5.24 -3.46 4 -7.08 8.26 -7.46 8.96 -1.72 3.38 20.96 27.14 27.14 22.92 4 -2.66 -4.28 -13.48 -5.8 -16.5a21.82 21.82 0 0 1 3.54 -5.66c6.22 3 6.42 2.68 7.24 1.88 4.8 -4.7 26.28 -28.52 32.2 -35.22 21.5 -24.34 26.66 -29.6 40.64 -65.36 1.54 -7.28 3.54 -29.58 4.86 -36.66a0.32 0.32 0 0 1 0.64 0c0 0.6 -0.8 26.7 -4.28 38.28C124 276.8 138 354.72 140.6 357.34a2.56 2.56 0 0 0 1.62 0.44 73.8 73.8 0 0 0 9.06 -0.8c1.16 15 1.16 14.98 1.88 15.52 2.94 2.24 25.4 3.38 32.78 -1.32 2 -1.24 2.96 -2.98 1.44 -4.7 -2.72 -3.08 -13.12 -4.62 -15.16 -5.28a26.42 26.42 0 0 1 -1.62 -7.2c7.62 -1.3 8.44 -1.44 8.68 -2 0.86 -1.72 -12.76 -108 -15.64 -125.62a444 444 0 0 0 -12.14 -49.54c1.34 -0.6 1.72 -1.04 1.76 -2.8a63.32 63.32 0 0 0 -0.84 -8.6c10.6 0.74 18 -2 23.32 -11.26 4.5 -7.8 -1.44 -22.4 -5.66 -30.34a37.68 37.68 0 0 1 6.16 -4.34c2.86 2.1 7.14 8.36 9.22 7.24C190.68 124 200.46 115.56 198 110zM39.72 373.2c0.68 2 0.72 3.26 -1.04 3.16 -6.82 -0.38 -22 -16.3 -23.84 -21.2 0.28 -0.52 1.86 -2.54 3.82 -4.98 3 3.84 9.68 9.48 14.68 10.84 -0.02 0.98 4.84 7.48 6.38 12.18zM34 359.7c-4.96 -1.12 -12 -6.58 -14.92 -10l2.74 -3.4a169.5 169.5 0 0 0 15.64 8.68 32.22 32.22 0 0 0 -3.46 4.72zm150.32 6.58c0.72 0.34 2.26 1.2 2.16 2 -0.6 4.8 -26.38 6 -32.5 3.06 -0.16 -0.58 -0.48 -3.1 -0.86 -6.22 4.88 0.58 13.58 -0.26 18 -2.86 0.88 0.72 8.88 1.9 13.22 4.02zm-14.68 -12.12a33.62 33.62 0 0 0 1.06 6.7c-4.3 2.76 -13.18 4 -17.66 3.58 -0.28 -2.44 -0.6 -5.18 -0.86 -7.58 5.68 -0.74 12.4 -1.84 17.48 -2.7zM150.7 91.32c7.24 -2.5 8 2.34 8.22 2.16a25.16 25.16 0 0 1 1.54 6.68 1.4 1.4 0 0 1 -0.92 1.14c-0.68 0.3 -1.82 -2.4 -2 -3.38l-0.34 -1.3a0.66 0.66 0 0 0 -1.28 0.28c0.62 4.82 0.82 6.86 0 7.52 -0.38 0.28 -0.56 0.22 -0.82 0a12 12 0 0 1 -1.78 -5.52c-0.42 -5.68 -2 -7.16 -1.44 2.56 0 0.88 0.26 3.02 -0.52 3.48s-1.02 -0.64 -1.28 -1.12a10.9 10.9 0 0 1 -1.04 -5.18 0.8 0.8 0 0 0 -1.24 -0.6 12.84 12.84 0 0 0 -2 1.56c-0.98 1.1 -3.76 2.6 -4.54 1.3s4.46 -7.86 9.44 -9.58zM130 67.22a3.46 3.46 0 0 1 -1.34 0.32 3.06 3.06 0 0 1 -2.36 -1.54 4 4 0 0 1 -0.34 -1.32 0.32 0.32 0 0 1 0.58 -0.3c0 0.1 1.54 1.22 1.64 1.3s1.7 0.78 1.88 0.84a0.32 0.32 0 1 1 -0.06 0.7zm-18.52 -6.56a1.32 1.32 0 0 0 -0.26 -1.04c-2 -2.12 -6.9 -3.26 -4.82 -7.44 0.6 -1.24 1.5 -1.24 2.58 -0.44 0.34 0.26 1.8 3.04 3.52 1.34a1.5 1.5 0 0 0 0.36 -0.84c0.2 -0.14 2.5 -1.14 1.7 -2.9 -0.26 -0.58 -0.42 -0.36 0 -0.58 3 -1.38 0 -2.54 2.58 -3.58 1.04 -0.44 1.16 -1.12 1.32 -2.36 1.76 0.42 1.82 -1.32 2 -1.26 1.86 0.38 1.4 0.78 3.58 -0.9 1.12 0.26 2.48 1.26 3.8 0.74a4 4 0 0 0 1.26 -0.94c1.4 1.4 2.34 0.76 3.78 -0.18 1 0.94 1.56 1.6 3.12 1.2 0.48 2 1.5 2 2.84 1.62l0.96 1.6c-0.12 1.12 -0.48 2.54 0.92 3.06a84.2 84.2 0 0 1 -2 11.44 2.36 2.36 0 0 0 -0.72 0.8c-1.78 1.28 -0.58 -0.4 -5.06 -0.8 -1.7 -0.14 -2.76 0.78 -4.18 1.16a28.46 28.46 0 0 0 -4.48 0c-2.38 0.38 -4.56 2.3 -5.84 1.78 0 0 -0.64 -0.42 -0.88 -0.5a0.38 0.38 0 0 0 -0.54 0.24 17.08 17.08 0 0 0 0 3.2c0 1.48 1.02 1.76 1.74 2.12 0.56 1.2 0.28 2.4 1.12 3.82 0.44 0.72 1 0.84 1.58 1.24a14.74 14.74 0 0 0 1.88 1.28c1.62 0.84 2.26 2.34 4.94 2.18 -0.14 1.02 -0.32 3.12 -0.8 7.68 0 0.2 2.22 15.6 -2.72 15.28 -7.82 -0.52 -15.9 -14.28 -17.4 -22 0.4 -3.06 3.98 -13.96 4.2 -16.02zm-5.82 16.2c1.62 8.46 10.18 22.76 18.9 23.34 5.5 0.34 5.26 -9.6 4.5 -15.68 1.08 0.58 2.14 1.16 3.14 1.74 0.62 6.5 0.68 16.64 -5.82 16.98 -8.76 0.56 -16.3 -8.92 -20.98 -16.34a66.1 66.1 0 0 1 -5.62 -10.68c2.1 0.14 4.06 0.36 5.96 0.64zM36.98 102.36c0.64 -3.3 31.82 -23.5 46.8 -25.58a79.6 79.6 0 0 1 15.38 -0.62c-0.18 1.08 11.26 29.76 27.42 28.66 7.64 -0.6 7.56 -10.44 6.42 -18.12a76.74 76.74 0 0 1 10.66 7.74 12.8 12.8 0 0 0 -4 5.6A2.38 2.38 0 0 0 142 102.9C120.66 116.34 94 134 77.8 144.24a44.4 44.4 0 0 0 -9.16 -4.86c1.16 -8.62 1.2 -8.94 1.1 -9.22 7.1 -4.64 15.78 -11.68 19.34 -18.36a0.32 0.32 0 0 0 0 -0.44c-0.42 -0.26 -0.28 0.18 -2.64 2.74 -3.26 3.5 -20.48 19.32 -25.16 20.18 -6.48 -2.76 -25.06 -28.02 -24.3 -31.92zM68.14 132c-0.16 1.34 -0.5 3.78 -0.92 6.86a39.24 39.24 0 0 0 -14.5 -2.16 7.14 7.14 0 0 1 3.1 -4.84 19 19 0 0 0 4.84 3.76c1.52 0.62 6.08 -2.64 7.48 -3.62zm-45.12 -7.5c-0.38 -7.42 7.74 -14.3 13.7 -18.82 2.82 6.48 11.72 18.68 18.34 25.4a8.96 8.96 0 0 0 -3.36 4.58c-1.1 3.62 9.68 55.76 11.26 58.92 0.28 0.58 0.92 0.52 1.54 0.32 1.4 -0.44 6.44 -2.68 6.78 -0.88 0 0.58 -0.8 1.58 -1.22 2 -2.64 2.68 -4.28 2.6 -4 3.7a20.94 20.94 0 0 0 4.24 7.34 6.8 6.8 0 0 0 1.88 0.98 3 3 0 0 1 -4.2 0.62 19.74 19.74 0 0 1 -4.78 -6.32 0.8 0.8 0 0 0 -1.06 -0.4 0.78 0.78 0 0 0 -0.38 1.08 19.6 19.6 0 0 0 4.98 6.74 1.58 1.58 0 0 1 -2 1.16c-1.9 -0.54 -4.18 -4.38 -5.14 -5.9a0.8 0.8 0 1 0 -1.36 0.86 37.44 37.44 0 0 1 3.06 6c0.22 0.6 -0.68 1.36 -2 0.96 -3.86 -1.22 -5.7 -12.58 -6 -13.36C52.4 197.6 25.02 164 23.02 124.5zm39.68 58.86c0 0.8 0.24 1.84 0.98 2.16a24.5 24.5 0 0 0 7.42 1.04c-0.14 1.62 -0.3 3.38 -0.46 5.26a18 18 0 0 0 -6.5 1.56c-0.66 -2 -3.56 -14.7 -6.28 -27.66a16.54 16.54 0 0 1 5.82 0.96 107.28 107.28 0 0 0 -0.98 16.68zm2.48 -16a16.96 16.96 0 0 1 8.18 7.5 32 32 0 0 1 0.24 10.28 31.48 31.48 0 0 1 -9.16 -0.96c-0.6 -1.78 -0.12 -8.62 0.74 -16.88zm-13.06 33.8a17.24 17.24 0 0 1 -11.58 -4.54A24 24 0 0 1 38 193.66a24.26 24.26 0 0 1 0.8 -14A196.84 196.84 0 0 0 51.88 200a10 10 0 0 1 0.24 1.1zm99.5 -26.54c-0.34 3.4 -46 8.38 -51.42 8.9a42 42 0 0 0 -2.96 -12l49.4 -29.8c2.44 12.54 5.36 28.94 4.98 32.9zm22.72 -21.18c-5.02 8.72 -12 11.24 -22 10.56 -0.48 0 0.36 0.66 -4.32 -23.12l1.14 -0.68c1.34 1.86 6.38 8.78 8.26 10.12 1.52 1.08 4.32 -1.1 5.8 -2.24a99.54 99.54 0 0 0 9.2 -8.56 1 1 0 0 0 0.26 -1.06c-0.98 -2.52 -5.1 -9.3 -6 -10.96a10.36 10.36 0 0 1 2.22 -2.54c3.74 7.32 9.56 21.38 5.44 28.48zm10.46 -28.28c-3.18 -1.9 -7 -8 -8.92 -7.38S166.6 124 165.2 126.44a1.88 1.88 0 0 0 -0.28 1.48c0.1 0.4 4.54 7.8 5.84 10.7 -2 2 -9.54 9.58 -12.3 10.12a88.3 88.3 0 0 1 -8.26 -10.34 0.92 0.92 0 0 0 -1.24 -0.26l-53.44 32.2a0.94 0.94 0 0 0 -0.4 1.14c0.14 -1.66 7.2 18.5 0.96 33.5 -2.12 5.14 -5.04 14 -15.82 19.46 -5.82 2.94 -14 4.86 -25.32 4.72 -8.6 0 -18.32 -2.92 -24.76 -8.8A42.66 42.66 0 0 1 15.38 190c-0.42 -11.54 4 -24.46 13.46 -32.28a151.64 151.64 0 0 0 8.92 20A24.98 24.98 0 0 0 43.06 206a18.92 18.92 0 0 0 12.46 5.08 6.56 6.56 0 0 0 3.4 3.18 2.88 2.88 0 0 0 4.1 -2.5 3.32 3.32 0 0 0 5.28 -1.22 4.68 4.68 0 0 0 6 -2.78c0 -0.96 -1.32 -1.14 -2.18 -1.56a20.7 20.7 0 0 0 5.2 -8.88 28.96 28.96 0 0 0 -0.7 -18.64A27.52 27.52 0 0 0 70 169.5a20 20 0 0 0 -12.44 -4.88C56.24 158 54.92 151.24 54 146c17.7 -2.2 26.72 7.88 27.88 7.14 23.78 -14.84 89.04 -56 95.02 -58.76 2 1.68 14.3 16.34 18.64 21.06a43.84 43.84 0 0 1 -10.74 9.72z" stroke-width="1"></path></g></svg>